#!OML:ASF E:\Style6\Style6.ASF
:FULLY-SPECIFIED
:DEGREES
3082
root 0.172783 18.3072 0.535286 11.2478 -2.76935 -3.20748
lowerback -5.42089 -0.398023 2.92148
upperback -3.16763 -0.677278 3.24104
thorax -0.216368 -0.351866 1.65847
lowerneck -9.3875 0.346207 3.09774
upperneck 8.99852 0.691357 -6.08609
head 4.25745 0.0985001 -2.33382
rclavicle -8.34896e-015 -2.38542e-015
rhumerus -45.5152 -34.6734 -53.1184
rradius 28.1067
rwrist 4.58118
rhand -10.0986 -3.32246
rfingers 7.12502
rthumb 15.8887 -32.6906
lclavicle -8.34896e-015 -2.38542e-015
lhumerus -58.4205 43.5079 44.5749
lradius 18.1129
lwrist -26.5393
lhand -9.71478 22.1269
lfingers 7.12502
lthumb 16.2583 51.4652
rfemur 0 0 0
rtibia 0
rfoot 0 0
rtoes 0
lfemur -13.8474 -27.3221 -11.5865
ltibia 16.1747
lfoot -7.49772 30.5501
ltoes -3.52114
3083
root 0.175886 18.3071 0.537983 11.3211 -2.80969 -3.12063
lowerback -5.4248 -0.400434 2.8623
upperback -3.13638 -0.67949 3.25078
thorax -0.181057 -0.351831 1.70126
lowerneck -9.33401 0.336133 3.0146
upperneck 8.75207 0.677128 -6.06608
head 4.1725 0.0932598 -2.31306
rclavicle 3.29983e-014 -3.97569e-014
rhumerus -46.3619 -34.378 -53.2822
rradius 27.9244
rwrist 4.65365
rhand -9.933 -3.36262
rfingers 7.12502
rthumb 16.0482 -32.718
lclavicle 3.29983e-014 -3.97569e-014
lhumerus -58.3928 42.735 45.6384
lradius 18.2341
lwrist -25.4883
lhand -9.51971 21.5358
lfingers 7.12502
lthumb 16.4461 50.8587
rfemur 0 0 0
rtibia 0
rfoot 0 0
rtoes 0
lfemur -13.8804 -27.2647 -11.6651
ltibia 16.08
lfoot -7.45438 30.5297
ltoes -3.72708
3084
root 0.17817 18.3072 0.542628 11.3098 -2.83535 -2.93828
lowerback -5.32438 -0.400819 2.69235
upperback -3.12252 -0.667813 3.22692
thorax -0.220745 -0.344241 1.7731
lowerneck -9.33271 0.330587 2.99005
upperneck 8.66495 0.66881 -6.06244
head 4.14529 0.0895142 -2.30784
rclavicle -9.7653e-015 -7.95139e-016
rhumerus -47.2477 -34.1036 -53.4116
rradius 27.7637
rwrist 4.70105
rhand -9.862 -3.42925
rfingers 7.12502
rthumb 16.1165 -32.7791
lclavicle -9.7653e-015 -7.95139e-016
lhumerus -58.4936 42.0659 46.4325
lradius 18.3273
lwrist -24.7887
lhand -9.08721 20.9412
lfingers 7.12502
lthumb 16.8625 50.2291
rfemur 0 0 0
rtibia 0
rfoot 0 0
rtoes 0
lfemur -13.7671 -27.2764 -11.8889
ltibia 15.9058
lfoot -7.42747 30.5176
ltoes -3.60271
3085
root 0.179215 18.3107 0.546231 11.2728 -2.80383 -2.91153
lowerback -5.21384 -0.401946 2.6565
upperback -3.06949 -0.664666 3.26708
thorax -0.226775 -0.341792 1.83523
lowerneck -9.42121 0.331456 2.97286
upperneck 8.59375 0.670665 -6.09053
head 4.1385 0.0876943 -2.31337
rclavicle -2.65874e-015 -4.69132e-014
rhumerus -48.0119 -33.8901 -53.5465
rradius 27.5789
rwrist 4.8759
rhand -9.78307 -3.4531
rfingers 7.12502
rthumb 16.1925 -32.7968
lclavicle -2.65874e-015 -4.69132e-014
lhumerus -58.5273 41.5331 47.2558
lradius 18.452
lwrist -24.0545
lhand -8.63292 20.568
lfingers 7.12502
lthumb 17.2998 49.818
rfemur 0 0 0
rtibia 0
rfoot 0 0
rtoes 0
lfemur -13.6201 -27.2389 -11.9511
ltibia 15.7396
lfoot -7.41383 30.4478
ltoes -3.37916
3086
root 0.180628 18.317 0.546565 11.2468 -2.79352 -2.91958
lowerback -5.07366 -0.390482 2.6883
upperback -3.0369 -0.645186 3.28085
thorax -0.271767 -0.33249 1.83339
lowerneck -9.44592 0.337404 3.03522
upperneck 8.50274 0.670372 -6.13592
head 4.11517 0.0877042 -2.3371
rclavicle 1.2275e-014 -2.38542e-014
rhumerus -48.6583 -33.5348 -53.8992
rradius 27.4219
rwrist 4.75003
rhand -9.75973 -3.53051
rfingers 7.12502
rthumb 16.215 -32.8724
lclavicle 1.2275e-014 -2.38542e-014
lhumerus -58.3874 40.8695 48.2619
lradius 18.6363
lwrist -23.1228
lhand -8.14949 20.4004
lfingers 7.12502
lthumb 17.765 49.6089
rfemur 0 0 0
rtibia 0
rfoot 0 0
rtoes 0
lfemur -13.5634 -27.162 -11.963
ltibia 15.682
lfoot -7.30805 30.3463
ltoes -3.37313
3087
root 0.181713 18.3163 0.541837 11.2499 -2.78219 -2.95294
lowerback -4.90224 -0.372397 2.7604
upperback -3.0334 -0.615499 3.28
thorax -0.364895 -0.319072 1.79476
lowerneck -9.36698 0.31875 3.07885
upperneck 8.34842 0.631294 -6.11161
head 4.05318 0.0741376 -2.33793
rclavicle 4.57205e-015 -7.95139e-015
rhumerus -49.2931 -33.1458 -54.3217
rradius 27.3312
rwrist 4.5427
rhand -9.64675 -3.4065
rfingers 7.12502
rthumb 16.3238 -32.7395
lclavicle 4.57205e-015 -7.95139e-015
lhumerus -58.1882 40.1895 49.2709
lradius 18.8101
lwrist -22.1499
lhand -7.64513 20.4059
lfingers 7.12502
lthumb 18.2503 49.5697
rfemur 0 0 0
rtibia 0
rfoot 0 0
rtoes 0
lfemur -13.6367 -27.0734 -11.9155
ltibia 15.7647
lfoot -7.35266 30.2437
ltoes -3.30142
3088
root 0.182579 18.3093 0.534676 11.2322 -2.75206 -2.98127
lowerback -4.71126 -0.379478 2.81016
upperback -3.01137 -0.618042 3.28202
thorax -0.4492 -0.321424 1.77014
lowerneck -9.29754 0.303057 3.12114
upperneck 8.19277 0.595246 -6.0762
head 3.99251 0.0623855 -2.33492
rclavicle 1.88845e-014 -7.95139e-015
rhumerus -49.8181 -32.7557 -54.8138
rradius 27.2515
rwrist 4.2921
rhand -9.45446 -2.98392
rfingers 7.12502
rthumb 16.5089 -32.3016
lclavicle 1.88845e-014 -7.95139e-015
lhumerus -58.247 39.899 49.7453
lradius 18.931
lwrist -21.6911
lhand -7.07675 20.4731
lfingers 7.12502
lthumb 18.797 49.5849
rfemur 0 0 0
rtibia 0
rfoot 0 0
rtoes 0
lfemur -13.7546 -26.989 -11.8754
ltibia 15.9403
lfoot -7.40912 30.1446
ltoes -3.43553
3089
root 0.185397 18.3066 0.530612 11.2343 -2.69677 -3.0839
lowerback -4.56362 -0.382986 2.96773
upperback -3.01194 -0.620753 3.31313
thorax -0.533754 -0.325204 1.71506
lowerneck -9.22112 0.294175 3.12592
upperneck 8.10647 0.577696 -6.05041
head 3.95268 0.0573566 -2.32803
rclavicle -1.87355e-014 5.32743e-014
rhumerus -50.3568 -32.4725 -55.1803
rradius 27.2238
rwrist 4.05939
rhand -9.24502 -2.81404
rfingers 7.12502
rthumb 16.7106 -32.1148
lclavicle -1.87355e-014 5.32743e-014
lhumerus -58.6183 39.9861 49.6378
lradius 18.9014
lwrist -21.9101
lhand -6.38721 20.2199
lfingers 7.12502
lthumb 19.4601 49.2661
rfemur 0 0 0
rtibia 0
rfoot 0 0
rtoes 0
lfemur -13.9047 -26.8962 -11.7573
ltibia 16.1784
lfoot -7.48278 30.0163
ltoes -3.67206
3090
root 0.189752 18.3073 0.530259 11.3075 -2.60472 -3.19931
lowerback -4.57285 -0.405288 3.16767
upperback -3.01489 -0.658022 3.35018
thorax -0.533643 -0.346305 1.63987
lowerneck -9.21666 0.306004 3.12484
upperneck 8.13815 0.59406 -6.03874
head 3.96231 0.0657622 -2.32346
rclavicle 2.48481e-015 3.49861e-014
rhumerus -50.8336 -32.1597 -55.6144
rradius 27.2613
rwrist 3.77912
rhand -9.13596 -2.69498
rfingers 7.12502
rthumb 16.8156 -31.9869
lclavicle 2.48481e-015 3.49861e-014
lhumerus -58.9653 40.1436 49.4773
lradius 18.7987
lwrist -22.1703
lhand -5.70727 19.9111
lfingers 7.12502
lthumb 20.1137 48.8899
rfemur 0 0 0
rtibia 0
rfoot 0 0
rtoes 0
lfemur -14.0983 -26.7607 -11.6036
ltibia 16.3615
lfoot -7.40116 29.8448
ltoes -4.07748
